<?xml version="1.0" standalone="no"?>
<!DOCTYPE svg PUBLIC "-//W3C//DTD SVG 20010904//EN"
 "http://www.w3.org/TR/2001/REC-SVG-20010904/DTD/svg10.dtd">
<svg version="1.0" xmlns="http://www.w3.org/2000/svg"
 width="410.000000pt" height="410.000000pt" viewBox="0 0 410.000000 410.000000"
 preserveAspectRatio="xMidYMid meet">

<g transform="translate(0.000000,410.000000) scale(0.100000,-0.100000)"
fill="#009688" stroke="none">
<path d="M1498 3793 c0 -5 -2 -137 -2 -294 -1 -222 -4 -290 -15 -303 -11 -13
-42 -16 -195 -18 l-181 -3 -3 -307 -2 -308 184 0 c156 0 186 -2 197 -16 10
-13 13 -154 15 -722 2 -615 4 -713 18 -756 9 -27 16 -67 16 -88 0 -21 6 -51
14 -66 8 -15 18 -45 22 -67 4 -22 13 -46 21 -53 7 -7 13 -20 13 -28 0 -13 23
-60 70 -143 36 -64 163 -192 245 -246 66 -44 149 -85 171 -85 8 0 28 -7 45
-15 66 -34 319 -46 558 -25 68 6 132 15 142 21 10 5 50 13 89 18 39 5 77 15
85 21 13 11 15 67 15 355 l0 343 -42 -5 c-24 -2 -73 -11 -110 -19 -85 -18
-186 -18 -218 1 -14 8 -35 14 -47 15 -35 0 -139 76 -172 126 -17 25 -43 72
-56 105 l-25 59 2 624 c2 344 7 628 11 633 5 4 147 10 315 13 l307 5 0 305 0
305 -305 3 c-273 2 -306 4 -317 19 -10 13 -13 91 -13 310 l0 293 -425 0 c-234
0 -426 -3 -427 -7z"/>
</g>
</svg>
